<mxfile host="app.diagrams.net" modified="2024-01-26T14:11:13.543Z" agent="Mozilla/5.0 (Windows NT 10.0; Win64; x64) AppleWebKit/537.36 (KHTML, like Gecko) Chrome/121.0.0.0 Safari/537.36" version="21.7.5" etag="0kWu1DvZj_rGOpQnjQ4F" type="github">
  <diagram name="Page-1" id="FMTom_-SalYR2EUTLqph">
    <mxGraphModel>
      <root>
        <mxCell id="0" />
        <mxCell id="1" parent="0" />
      </root>
    </mxGraphModel>
  </diagram>
</mxfile>
